<svg xmlns="http://www.w3.org/2000/svg" width="24.368" height="22.061" viewBox="0 0 24.368 22.061"><defs><style>.a{fill:#fff;}.b,.c,.f{fill:none;}.b{stroke:#707070;}.b,.c{stroke-width:1.5px;}.c{stroke:#fff;}.d,.e{stroke:none;}.e{fill:#707070;}</style></defs><g transform="translate(0 0.53)"><g transform="translate(-1018 -530.02)"><g class="a" transform="translate(1018 534.182)"><path class="d" d="M 12.18408298492432 13.92682075500488 C 6.842879772186279 13.92682075500488 2.246221542358398 8.88737678527832 0.9596497416496277 7.338137626647949 C 1.492751836776733 6.695194721221924 2.593786716461182 5.452208518981934 4.074462890625 4.2240309715271 C 5.985123157501221 2.639200925827026 8.943022727966309 0.7500008344650269 12.18408298492432 0.7500008344650269 C 17.5252857208252 0.7500008344650269 22.12194442749023 5.789444446563721 23.40851593017578 7.33868408203125 C 22.87541389465332 7.981626987457275 21.77437973022461 9.224613189697266 20.29370307922363 10.45279121398926 C 18.38304328918457 12.03762054443359 15.42514324188232 13.92682075500488 12.18408298492432 13.92682075500488 Z"/><path class="e" d="M 12.18408298492432 1.500000953674316 C 7.623332977294922 1.500000953674316 3.562952041625977 5.509060859680176 1.946371078491211 7.340335845947266 C 2.521484375 7.993273258209229 3.408323287963867 8.922879219055176 4.528053283691406 9.854560852050781 C 6.349542617797852 11.37016105651855 9.15638256072998 13.17682075500488 12.18408298492432 13.17682075500488 C 16.74483108520508 13.17682075500488 20.80521392822266 9.167760848999023 22.42179489135742 7.336485862731934 C 21.84668159484863 6.683548450469971 20.95984268188477 5.753942489624023 19.84011268615723 4.822260856628418 C 18.01862335205078 3.306660652160645 15.21178340911865 1.500000953674316 12.18408298492432 1.500000953674316 M 12.18408298492432 9.5367431640625e-07 C 18.91316223144531 9.5367431640625e-07 24.36816215515137 7.3384108543396 24.36816215515137 7.3384108543396 C 24.36816215515137 7.3384108543396 18.91316223144531 14.67682075500488 12.18408298492432 14.67682075500488 C 5.45500373840332 14.67682075500488 3.814697265625e-06 7.3384108543396 3.814697265625e-06 7.3384108543396 C 3.814697265625e-06 7.3384108543396 5.45500373840332 9.5367431640625e-07 12.18408298492432 9.5367431640625e-07 Z"/></g><g class="b" transform="translate(1025.184 536.52)"><circle class="d" cx="5" cy="5" r="5"/><circle class="f" cx="5" cy="5" r="4.25"/></g></g><line class="b" x2="20" y2="20" transform="translate(1.684 1)"/><line class="c" x2="20" y2="20" transform="translate(2.684)"/></g></svg>